<svg xmlns="http://www.w3.org/2000/svg" version="1.1" xmlns:xlink="http://www.w3.org/1999/xlink" xmlns:svgjs="http://svgjs.dev/svgjs" width="2000" height="813" viewBox="0 0 2000 813"><g transform="matrix(1,0,0,1,-1.208786497917913,-0.7552341535478604)"><svg viewBox="0 0 396 161" data-background-color="#ffffff" preserveAspectRatio="xMidYMid meet" height="813" width="2000" xmlns="http://www.w3.org/2000/svg" xmlns:xlink="http://www.w3.org/1999/xlink"><g id="tight-bounds" transform="matrix(1,0,0,1,0.2400437912056077,0.15033806164080943)"><svg viewBox="0 0 395.52 160.6991229469691" height="160.6991229469691" width="395.52"><g><svg viewBox="0 0 395.52 160.6991229469691" height="160.6991229469691" width="395.52"><g transform="matrix(1,0,0,1,0,82.8154411570939)"><svg viewBox="0 0 395.52 77.88368178987523" height="77.88368178987523" width="395.52"><g id="textblocktransform"><svg viewBox="0 0 395.52 77.88368178987523" height="77.88368178987523" width="395.52" id="textblock"><g><svg viewBox="0 0 395.52 77.88368178987523" height="77.88368178987523" width="395.52"><g transform="matrix(1,0,0,1,0,0)"><svg width="395.52" viewBox="2.2344197071572465 -17.437613132326792 314.3720902928429 61.90445313232679" height="77.88368178987523" data-palette-color="#b8b7a8"><path d="M37.772-4.283v0l-4.461 0.813c-0.091-1.099-0.308-2.137-0.652-3.115-0.343-0.977-0.815-1.854-1.414-2.628-0.605-0.783-1.338-1.447-2.201-1.994-0.861-0.553-1.848-0.952-2.961-1.199v0c-1.198-0.266-2.334-0.313-3.41-0.141-1.082 0.17-2.093 0.509-3.032 1.017-0.939 0.509-1.806 1.153-2.6 1.934-0.786 0.775-1.491 1.629-2.115 2.563-0.625 0.94-1.154 1.94-1.586 2.997-0.438 1.05-0.773 2.102-1.007 3.157v0c-0.369 1.666-0.542 3.369-0.518 5.109 0.023 1.746 0.314 3.371 0.875 4.875 0.553 1.509 1.416 2.823 2.588 3.944 1.172 1.12 2.721 1.894 4.648 2.321v0c1.015 0.225 2.014 0.265 2.995 0.121 0.986-0.136 1.913-0.423 2.781-0.859 0.873-0.428 1.677-0.987 2.411-1.678 0.74-0.689 1.38-1.466 1.919-2.329v0l3.764 2.565c-0.94 1.376-2.06 2.517-3.36 3.424-1.299 0.9-2.705 1.575-4.219 2.025-1.507 0.451-3.069 0.692-4.687 0.722-1.62 0.037-3.211-0.118-4.773-0.463v0c-1.686-0.374-3.257-0.941-4.714-1.701-1.458-0.753-2.769-1.662-3.933-2.726-1.172-1.059-2.182-2.249-3.029-3.57-0.847-1.321-1.512-2.729-1.993-4.222-0.482-1.493-0.759-3.06-0.833-4.701-0.08-1.643 0.067-3.307 0.442-4.993v0c0.374-1.686 0.945-3.26 1.712-4.721 0.76-1.457 1.674-2.763 2.743-3.92 1.069-1.156 2.267-2.154 3.593-2.993 1.326-0.839 2.745-1.495 4.257-1.965 1.503-0.466 3.075-0.735 4.716-0.808 1.64-0.067 3.303 0.087 4.989 0.46v0c1.627 0.361 3.173 0.905 4.636 1.632 1.465 0.721 2.779 1.617 3.942 2.687 1.171 1.065 2.147 2.299 2.929 3.702 0.783 1.396 1.303 2.949 1.558 4.658zM69.586 13.392v0c-0.238 1.447-0.656 2.774-1.253 3.979-0.591 1.207-1.316 2.29-2.177 3.249-0.862 0.966-1.847 1.8-2.956 2.503-1.102 0.704-2.278 1.256-3.527 1.659-1.249 0.402-2.554 0.657-3.916 0.764-1.362 0.107-2.734 0.046-4.115-0.181v0c-1.381-0.228-2.697-0.61-3.946-1.147-1.249-0.537-2.401-1.196-3.455-1.978-1.054-0.782-1.99-1.682-2.808-2.702-0.825-1.021-1.491-2.127-1.997-3.319-0.507-1.185-0.846-2.45-1.017-3.796-0.178-1.34-0.149-2.724 0.086-4.151v0c0.236-1.434 0.653-2.757 1.252-3.969 0.592-1.213 1.318-2.303 2.18-3.269 0.862-0.966 1.847-1.8 2.956-2.503 1.101-0.697 2.277-1.25 3.527-1.659 1.249-0.402 2.551-0.658 3.906-0.765 1.356-0.108 2.724-0.048 4.105 0.179v0c1.381 0.228 2.7 0.61 3.956 1.149 1.256 0.538 2.411 1.198 3.465 1.979 1.053 0.788 1.989 1.689 2.808 2.702 0.825 1.021 1.491 2.127 1.997 3.319 0.506 1.191 0.845 2.457 1.017 3.796 0.178 1.34 0.149 2.727-0.088 4.161zM61.288 12.025v0c0.128-0.776 0.219-1.599 0.275-2.468 0.05-0.877 0.041-1.747-0.026-2.609-0.074-0.864-0.229-1.707-0.465-2.529-0.236-0.823-0.573-1.564-1.012-2.224-0.432-0.659-0.991-1.221-1.679-1.686-0.679-0.47-1.509-0.786-2.489-0.947v0c-0.934-0.154-1.792-0.113-2.574 0.123-0.782 0.236-1.491 0.602-2.127 1.099-0.636 0.497-1.199 1.103-1.688 1.82-0.489 0.71-0.913 1.461-1.274 2.253-0.36 0.792-0.659 1.601-0.896 2.427-0.231 0.827-0.407 1.612-0.53 2.355v0c-0.121 0.737-0.205 1.534-0.252 2.391-0.041 0.865-0.019 1.733 0.068 2.605 0.086 0.872 0.247 1.72 0.483 2.543 0.236 0.823 0.576 1.571 1.019 2.245 0.443 0.674 0.997 1.249 1.662 1.723 0.665 0.474 1.465 0.789 2.398 0.943v0c0.96 0.158 1.841 0.124 2.642-0.102 0.793-0.221 1.507-0.576 2.142-1.066 0.635-0.49 1.192-1.084 1.672-1.782 0.473-0.699 0.887-1.448 1.242-2.248 0.355-0.8 0.648-1.619 0.881-2.46 0.225-0.834 0.401-1.637 0.528-2.406zM94.788 27.314l-0.383 3.248-23.735-2.802 0.383-3.248v0l17.22-19.798-14.678-1.732 0.385-3.258 23.735 2.802-0.385 3.258-17.23 19.796zM121.864 4.261l5.695 0.411-12.021 24.027c-1.375 2.748-2.88 5.453-4.516 8.116-1.636 2.669-3.385 5.22-5.245 7.652v0l-3.08-2.188c0.458-0.702 0.998-1.512 1.619-2.429 0.628-0.917 1.244-1.869 1.85-2.855 0.613-0.985 1.181-1.963 1.706-2.934 0.531-0.964 0.946-1.85 1.245-2.658v0l-10.293-28.806 8.239 0.595 6.983 19.644zM162.791 7.295v0l-4.223 1.656c-0.3-1.061-0.713-2.038-1.237-2.932-0.525-0.893-1.156-1.663-1.894-2.308-0.744-0.652-1.592-1.163-2.542-1.533-0.951-0.377-1.996-0.58-3.136-0.609v0c-1.226-0.03-2.351 0.142-3.374 0.517-1.03 0.375-1.956 0.902-2.78 1.581-0.824 0.68-1.551 1.479-2.18 2.397-0.623 0.911-1.151 1.885-1.583 2.921-0.433 1.043-0.76 2.125-0.982 3.247-0.228 1.115-0.355 2.212-0.381 3.291v0c-0.042 1.706 0.115 3.411 0.473 5.114 0.358 1.709 0.956 3.248 1.795 4.616 0.833 1.374 1.932 2.499 3.298 3.373 1.365 0.874 3.034 1.336 5.007 1.385v0c1.04 0.026 2.027-0.126 2.962-0.457 0.942-0.323 1.797-0.782 2.565-1.376 0.775-0.588 1.456-1.291 2.043-2.11 0.594-0.819 1.073-1.704 1.436-2.655v0l4.187 1.794c-0.658 1.531-1.538 2.866-2.64 4.006-1.102 1.133-2.352 2.066-3.751 2.797-1.392 0.732-2.879 1.269-4.461 1.61-1.582 0.347-3.173 0.501-4.773 0.461v0c-1.726-0.043-3.377-0.297-4.953-0.763-1.576-0.459-3.037-1.099-4.384-1.919-1.354-0.814-2.573-1.788-3.658-2.922-1.085-1.134-2.008-2.387-2.767-3.76-0.759-1.373-1.333-2.857-1.72-4.454-0.394-1.597-0.569-3.258-0.526-4.985v0c0.043-1.726 0.301-3.38 0.773-4.962 0.466-1.576 1.112-3.033 1.94-4.373 0.827-1.34 1.811-2.549 2.951-3.628 1.141-1.079 2.407-1.994 3.799-2.747 1.386-0.746 2.877-1.312 4.474-1.699 1.597-0.38 3.258-0.549 4.984-0.506v0c1.666 0.041 3.287 0.278 4.864 0.711 1.577 0.426 3.038 1.053 4.384 1.88 1.353 0.821 2.548 1.844 3.585 3.07 1.037 1.219 1.845 2.643 2.425 4.271zM197.407 18.53v0c0.044 1.466-0.111 2.848-0.465 4.146-0.348 1.298-0.852 2.5-1.513 3.607-0.66 1.114-1.467 2.122-2.42 3.024-0.947 0.902-1.994 1.671-3.142 2.306-1.148 0.635-2.38 1.135-3.697 1.501-1.316 0.366-2.674 0.571-4.073 0.613v0c-1.399 0.042-2.764-0.08-4.093-0.367-1.329-0.287-2.586-0.713-3.77-1.278-1.184-0.565-2.276-1.269-3.275-2.112-1.006-0.844-1.872-1.801-2.597-2.873-0.726-1.065-1.301-2.242-1.727-3.53-0.432-1.281-0.67-2.644-0.713-4.091v0c-0.044-1.453 0.112-2.831 0.466-4.135 0.348-1.304 0.852-2.513 1.511-3.628 0.66-1.114 1.467-2.122 2.421-3.024 0.947-0.896 1.994-1.664 3.142-2.305 1.148-0.635 2.377-1.135 3.686-1.501 1.31-0.366 2.664-0.57 4.064-0.613v0c1.399-0.042 2.767 0.08 4.103 0.367 1.336 0.287 2.596 0.712 3.78 1.277 1.184 0.571 2.276 1.276 3.275 2.113 1.006 0.844 1.872 1.801 2.597 2.873 0.726 1.072 1.301 2.249 1.727 3.53 0.432 1.281 0.67 2.648 0.713 4.1zM189.001 18.783v0c-0.024-0.786-0.092-1.611-0.204-2.475-0.12-0.87-0.295-1.722-0.527-2.556-0.238-0.833-0.553-1.631-0.943-2.392-0.39-0.762-0.863-1.425-1.42-1.989-0.551-0.564-1.207-1.008-1.971-1.331-0.757-0.331-1.632-0.481-2.625-0.451v0c-0.946 0.028-1.78 0.234-2.502 0.615-0.722 0.382-1.348 0.878-1.876 1.487-0.529 0.609-0.964 1.313-1.308 2.11-0.343 0.791-0.615 1.609-0.816 2.456-0.201 0.846-0.339 1.698-0.414 2.554-0.068 0.856-0.09 1.66-0.067 2.413v0c0.022 0.746 0.093 1.545 0.212 2.394 0.126 0.857 0.315 1.705 0.567 2.545 0.252 0.839 0.573 1.64 0.962 2.402 0.39 0.762 0.867 1.431 1.431 2.008 0.564 0.577 1.218 1.034 1.962 1.371 0.744 0.338 1.589 0.492 2.535 0.464v0c0.973-0.029 1.831-0.232 2.573-0.607 0.736-0.369 1.368-0.855 1.897-1.458 0.529-0.603 0.962-1.293 1.299-2.07 0.33-0.777 0.592-1.592 0.787-2.445 0.194-0.853 0.325-1.714 0.392-2.582 0.061-0.862 0.079-1.683 0.056-2.463zM225.623 4.743v0l-4.033 8.034c-0.243-0.636-0.552-1.348-0.927-2.134-0.369-0.794-0.81-1.525-1.323-2.195-0.506-0.67-1.094-1.219-1.763-1.649-0.675-0.429-1.425-0.612-2.249-0.548v0c-0.764 0.059-1.411 0.303-1.939 0.732-0.535 0.436-0.971 0.981-1.308 1.636-0.344 0.655-0.611 1.388-0.803 2.198-0.192 0.804-0.327 1.613-0.404 2.428-0.071 0.815-0.104 1.593-0.1 2.335 0.011 0.741 0.037 1.381 0.079 1.92v0l1.091 14.108-8.255 0.638-2.178-28.146 3.161-0.244 3.847 6.302c0.37-1.092 0.814-2.102 1.33-3.032 0.517-0.929 1.132-1.746 1.847-2.449 0.715-0.697 1.544-1.263 2.487-1.697 0.936-0.433 2.012-0.697 3.228-0.792v0c0.638-0.049 1.35-0.051 2.136-0.004 0.786 0.046 1.564 0.167 2.335 0.36 0.764 0.195 1.477 0.471 2.14 0.828 0.669 0.356 1.203 0.813 1.601 1.371zM258.331 10.261v0c0.233 1.892 0.244 3.896 0.033 6.011-0.211 2.108-0.606 4.199-1.183 6.271-0.585 2.073-1.343 4.051-2.274 5.931-0.937 1.882-2.017 3.536-3.239 4.963v0l-3.281-1.29c0.337-0.868 0.639-1.825 0.906-2.872 0.26-1.053 0.48-2.161 0.659-3.325 0.18-1.157 0.319-2.35 0.417-3.578 0.104-1.229 0.17-2.439 0.198-3.631 0.028-1.192 0.017-2.35-0.033-3.472-0.043-1.116-0.123-2.151-0.241-3.104v0c-0.078-0.635-0.187-1.307-0.328-2.015-0.135-0.716-0.323-1.425-0.564-2.127-0.247-0.702-0.541-1.368-0.88-1.997-0.339-0.63-0.755-1.17-1.247-1.62-0.485-0.451-1.051-0.791-1.697-1.021-0.646-0.23-1.379-0.294-2.2-0.193v0c-0.807 0.099-1.506 0.37-2.097 0.812-0.584 0.441-1.081 0.986-1.491 1.634-0.417 0.649-0.751 1.375-1.002 2.178-0.257 0.804-0.446 1.62-0.566 2.448-0.12 0.827-0.179 1.634-0.176 2.419-0.004 0.786 0.032 1.487 0.107 2.103v0l1.726 14.044-8.218 1.01-3.443-28.019 3.146-0.387 4.564 6.069c0.317-1.14 0.761-2.196 1.334-3.166 0.572-0.977 1.246-1.832 2.022-2.566 0.783-0.734 1.673-1.337 2.669-1.809 1.004-0.466 2.111-0.773 3.323-0.922v0c1.945-0.239 3.675-0.133 5.187 0.319 1.521 0.458 2.826 1.187 3.917 2.189 1.091 1.008 1.967 2.257 2.626 3.747 0.659 1.484 1.101 3.139 1.326 4.966zM270.758 10.868v0c1.031 0.049 2.057 0.051 3.078 0.007 1.013-0.05 2.026-0.163 3.036-0.341v0c1.064-0.187 2.031-0.459 2.903-0.814 0.87-0.363 1.596-0.839 2.176-1.429 0.587-0.59 1.001-1.313 1.243-2.168 0.249-0.856 0.271-1.868 0.065-3.037v0c-0.166-0.946-0.447-1.79-0.841-2.532-0.395-0.743-0.894-1.349-1.497-1.819-0.605-0.476-1.305-0.803-2.102-0.981-0.791-0.186-1.675-0.193-2.653-0.02v0c-0.913 0.16-1.707 0.473-2.384 0.936-0.669 0.47-1.229 1.035-1.682 1.697-0.451 0.668-0.807 1.414-1.068 2.239-0.261 0.824-0.448 1.666-0.562 2.525-0.112 0.866-0.15 1.725-0.115 2.579 0.028 0.855 0.108 1.653 0.238 2.395v0c0.022 0.125 0.044 0.253 0.068 0.384 0.022 0.125 0.054 0.251 0.097 0.379zM289.846 1.857v0c0.2 1.136 0.191 2.183-0.026 3.142-0.212 0.951-0.574 1.82-1.085 2.608-0.518 0.788-1.153 1.489-1.905 2.101-0.753 0.606-1.576 1.143-2.469 1.612-0.894 0.462-1.832 0.843-2.814 1.144-0.982 0.308-1.945 0.545-2.89 0.711v0c-1.202 0.211-2.405 0.335-3.611 0.371-1.198 0.041-2.401-0.025-3.609-0.198v0c0.364 1.033 0.824 1.991 1.379 2.875 0.556 0.891 1.215 1.634 1.976 2.231 0.769 0.603 1.66 1.031 2.673 1.287 1.012 0.249 2.158 0.26 3.438 0.035v0c0.854-0.15 1.642-0.421 2.365-0.812 0.73-0.392 1.372-0.877 1.927-1.455 0.562-0.579 1.032-1.234 1.412-1.964 0.374-0.722 0.646-1.505 0.816-2.347v0l3.735 0.684c-0.303 1.36-0.836 2.58-1.601 3.662-0.757 1.087-1.663 2.035-2.718 2.844-1.064 0.803-2.224 1.464-3.48 1.982-1.256 0.519-2.524 0.89-3.804 1.116v0c-2.121 0.373-4.144 0.359-6.069-0.04-1.917-0.394-3.639-1.12-5.165-2.179-1.525-1.052-2.816-2.406-3.871-4.061-1.048-1.65-1.758-3.532-2.13-5.647v0c-0.373-2.121-0.348-4.136 0.075-6.044 0.429-1.91 1.181-3.622 2.254-5.138 1.075-1.509 2.446-2.779 4.113-3.809 1.673-1.032 3.57-1.734 5.691-2.107v0c1.024-0.18 2.088-0.292 3.19-0.338 1.096-0.044 2.177 0.003 3.243 0.141 1.065 0.131 2.092 0.367 3.079 0.708 0.987 0.341 1.877 0.817 2.668 1.429 0.798 0.611 1.479 1.365 2.042 2.261 0.562 0.889 0.953 1.955 1.171 3.195zM316.607-11.052v0l-2.856 8.525c-0.331-0.596-0.737-1.256-1.22-1.983-0.478-0.734-1.018-1.395-1.62-1.985-0.596-0.591-1.255-1.052-1.978-1.383-0.729-0.329-1.497-0.404-2.304-0.225v0c-0.748 0.167-1.354 0.5-1.816 0.999-0.468 0.507-0.822 1.109-1.064 1.804-0.248 0.697-0.409 1.46-0.483 2.29-0.076 0.823-0.095 1.643-0.057 2.461 0.045 0.816 0.122 1.591 0.231 2.326 0.115 0.732 0.232 1.362 0.349 1.889v0l3.076 13.812-8.082 1.8-6.136-27.555 3.094-0.689 4.7 5.694c0.212-1.133 0.508-2.196 0.888-3.189 0.38-0.993 0.874-1.888 1.482-2.686 0.609-0.791 1.35-1.468 2.221-2.032 0.865-0.562 1.893-0.975 3.084-1.24v0c0.625-0.139 1.329-0.241 2.114-0.307 0.785-0.065 1.572-0.056 2.363 0.027 0.784 0.085 1.529 0.257 2.235 0.517 0.713 0.258 1.306 0.635 1.779 1.13z" opacity="1" transform="matrix(1,0,0,1,0,0)" fill="#b8b7a8" class="wordmark-text-0" data-fill-palette-color="primary" id="text-0"></path></svg></g></svg></g></svg></g></svg></g><g transform="matrix(1,0,0,1,139.71681972384178,0)"><svg viewBox="0 0 116.08636055231644 77.88368178987523" height="77.88368178987523" width="116.08636055231644"><g><svg xmlns="http://www.w3.org/2000/svg" xmlns:xlink="http://www.w3.org/1999/xlink" version="1.1" x="0" y="0" viewBox="1 22.249999999999993 98 65.74933333333334" enable-background="new 0 0 100 100" xml:space="preserve" height="77.88368178987523" width="116.08636055231644" class="icon-icon-0" data-fill-palette-color="accent" id="icon-0"><path d="M95.094 38.507A4.05 4.05 0 0 1 92.715 36.405V36.408A12.185 12.185 0 0 0 82.354 26.407V26.314H78.77A4.063 4.063 0 1 0 70.642 26.314L37.641 26.284C25.8 26.284 15.559 33.05 10.512 42.913 10.488 42.949 10.455 42.98 10.435 43.017 7.156 48.988 1 52.487 1 52.487L3.216 55.915C4.547 57.1 5.816 57.457 7.177 57.263A30.3 30.3 0 0 0 8.971 67.084L8.955 67.09S12.237 84.216 16.69 87.278C19.05 88.901 28.143 87.278 28.143 87.278L28.104 85.707C28.117 85.711 28 81.529 28 81.529 28.134 80.547 28.381 79.6 28.734 78.707 30.278 78.97 31.899 79.12 33.582 79.12 39.772 79.12 45.225 77.215 48.424 74.321A12 12 0 0 1 50.198 76.399C50.276 79.695 50.729 82.587 51.871 84.103 53.58 86.373 62.792 87.249 62.792 87.249L66.926 65.232C67.442 63.446 67.995 59.533 67.995 59.533A12.18 12.18 0 0 1 79.123 50.7H82.353V50.66C82.672 50.676 82.99 50.701 83.313 50.7 96.578 50.67 99 44.604 99 38.507z" fill="#aa968a" data-fill-palette-color="accent"></path></svg></g></svg></g><g></g></svg></g><defs></defs></svg><rect width="395.52" height="160.6991229469691" fill="none" stroke="none" visibility="hidden"></rect></g></svg></g></svg>